<mxfile host="app.diagrams.net" modified="2024-06-15T08:37:17.400Z" agent="Mozilla/5.0 (Windows NT 10.0; Win64; x64) AppleWebKit/537.36 (KHTML, like Gecko) Chrome/125.0.0.0 Safari/537.36" etag="bKBzD1qfzJCksXhVjERh" version="24.5.4" type="github">
  <diagram name="第 1 页" id="TTzbe6T8aSRQdL_Q_-m9">
    <mxGraphModel dx="722" dy="431" grid="0" gridSize="10" guides="1" tooltips="1" connect="1" arrows="1" fold="1" page="1" pageScale="1" pageWidth="827" pageHeight="1169" math="0" shadow="0">
      <root>
        <mxCell id="0" />
        <mxCell id="1" parent="0" />
        <mxCell id="wngmmeEEEMhLUw8l9AiX-1" value="" style="rounded=1;whiteSpace=wrap;html=1;fillColor=#fff2cc;strokeColor=#d6b656;" vertex="1" parent="1">
          <mxGeometry x="156" y="106" width="313" height="155" as="geometry" />
        </mxCell>
        <mxCell id="wngmmeEEEMhLUw8l9AiX-2" value="容器A" style="rounded=1;whiteSpace=wrap;html=1;fillColor=#dae8fc;strokeColor=#6c8ebf;" vertex="1" parent="1">
          <mxGeometry x="186.5" y="137" width="84" height="40" as="geometry" />
        </mxCell>
        <mxCell id="wngmmeEEEMhLUw8l9AiX-3" value="容器A" style="rounded=1;whiteSpace=wrap;html=1;fillColor=#f8cecc;strokeColor=#b85450;" vertex="1" parent="1">
          <mxGeometry x="354.5" y="137" width="84" height="40" as="geometry" />
        </mxCell>
        <mxCell id="wngmmeEEEMhLUw8l9AiX-6" style="edgeStyle=orthogonalEdgeStyle;rounded=0;orthogonalLoop=1;jettySize=auto;html=1;entryX=0.5;entryY=1;entryDx=0;entryDy=0;" edge="1" parent="1" source="wngmmeEEEMhLUw8l9AiX-4" target="wngmmeEEEMhLUw8l9AiX-3">
          <mxGeometry relative="1" as="geometry">
            <Array as="points">
              <mxPoint x="397" y="227" />
              <mxPoint x="397" y="197" />
            </Array>
          </mxGeometry>
        </mxCell>
        <mxCell id="wngmmeEEEMhLUw8l9AiX-7" style="edgeStyle=orthogonalEdgeStyle;rounded=0;orthogonalLoop=1;jettySize=auto;html=1;entryX=0.5;entryY=1;entryDx=0;entryDy=0;" edge="1" parent="1" source="wngmmeEEEMhLUw8l9AiX-4" target="wngmmeEEEMhLUw8l9AiX-2">
          <mxGeometry relative="1" as="geometry">
            <Array as="points">
              <mxPoint x="229" y="225" />
            </Array>
          </mxGeometry>
        </mxCell>
        <mxCell id="wngmmeEEEMhLUw8l9AiX-4" value="数据卷" style="rounded=1;whiteSpace=wrap;html=1;fillColor=#d5e8d4;strokeColor=#82b366;" vertex="1" parent="1">
          <mxGeometry x="270.5" y="205" width="84" height="40" as="geometry" />
        </mxCell>
      </root>
    </mxGraphModel>
  </diagram>
</mxfile>
